<svg width="2574" height="638" viewBox="0 0 2574 638" fill="none" xmlns="http://www.w3.org/2000/svg">
<path d="M669.032 233.758C668.309 231.601 667.587 229.411 666.756 227.095C665.6 223.826 664.3 220.431 662.927 217.036C658.267 205.454 652.704 194.157 646.202 182.988C643.457 178.292 640.459 173.5 637.316 168.772C622.65 146.878 604.227 126.125 582.156 106.737C529.706 60.6634 468.622 32.708 398.905 22.9347C387.165 21.2847 375.208 20.1423 362.746 19.5394C355.738 19.1904 348.405 19 341 19C334.245 19 327.562 19.1587 320.843 19.476C235.341 23.3472 161.686 52.4449 99.8798 106.737C33.2933 165.229 0 235.831 0 318.545C0 401.269 33.3053 471.903 99.8798 530.384C140.843 566.335 186.972 591.245 237.941 604.984C264.492 612.124 291.981 616.312 320.843 617.645C320.952 617.645 321.024 617.645 321.132 617.645C327.273 617.931 333.125 618.089 338.833 618.089C339.7 618.089 340.35 618.089 341 618.089C348.441 618.089 355.81 617.899 362.746 617.582C364.552 617.486 366.178 617.391 367.767 617.296C382.361 616.376 396.593 614.726 410.175 612.409C415.919 611.426 421.59 610.315 427.081 609.141C485.455 596.258 537.003 570.048 582.156 530.384C617.268 499.541 643.132 465.334 659.712 427.701C673.042 397.461 680.411 364.999 681.783 330.285C681.928 326.446 682 322.511 682 318.545C682 318.132 682 317.688 682 317.275C682 317.053 682 316.863 682 316.641C681.856 290.843 678.424 266.188 671.669 242.389C670.874 239.629 669.971 236.678 669.032 233.758Z" fill="#FFEBD8"/>
<path d="M499.069 223.765L479.647 210.276L226.816 213.165L276.975 256.455L201.743 233.442L205.116 366.342L358.418 498.649C360.83 498.591 363.227 498.507 365.609 498.396C366.882 498.33 368.027 498.264 369.147 498.198C379.431 497.561 389.46 496.419 399.031 494.815C403.078 494.134 407.075 493.365 410.944 492.552C452.079 483.633 488.403 465.487 520.222 438.026C544.964 416.672 563.19 392.99 574.874 366.935C583.859 346.9 589.001 325.458 590.299 302.501L590.287 302.49L499.069 223.765Z" fill="black" fill-opacity="0.0980392"/>
<path d="M475.572 211.067C478.672 209.944 478.672 208.871 475.572 207.748L346.805 161.805C343.758 160.732 340.71 160.732 337.636 161.805L208.87 207.748C205.822 208.871 205.822 209.944 208.87 211.067L337.636 257.01C340.71 258.083 343.758 258.083 346.805 257.01L475.572 211.067ZM495.791 223.071C495.791 220.176 494.519 219.202 491.975 220.151L353.298 271.285C350.727 272.233 349.482 274.129 349.482 277.024V377.957L375.095 368.586H375.108C377.917 367.563 380.7 367.613 383.482 368.786C386.265 369.934 388.199 371.83 389.286 374.5C390.372 377.146 390.319 379.766 389.1 382.386C387.855 385.007 385.841 386.828 383.032 387.852H383.018L349.482 400.117V435.467C349.482 438.361 350.727 439.335 353.298 438.386L491.975 387.253C494.519 386.329 495.791 384.383 495.791 381.488V223.071ZM415.124 298.536V263.249L483.946 239.292V274.579L415.124 298.536ZM189.816 220.151C187.272 219.202 186 220.176 186 223.071V381.488C186 384.383 187.272 386.329 189.816 387.253L328.493 438.386C331.011 439.335 332.31 438.361 332.31 435.467V400.117L298.76 387.852C295.924 386.803 293.91 384.982 292.691 382.361C291.472 379.741 291.419 377.096 292.532 374.45C293.619 371.805 295.58 369.909 298.362 368.761C301.145 367.613 303.927 367.563 306.71 368.586L332.31 377.944V277.024C332.31 274.129 331.011 272.233 328.493 271.285L189.816 220.151Z" fill="#4673E6"/>
<path d="M583.248 220.734C580.329 214.626 577.037 208.643 573.372 202.785C571.31 199.468 569.121 196.173 566.804 192.943C556.852 179.015 544.71 165.856 530.378 153.487C483.465 112.999 426.802 92.7439 360.442 92.7439C294.081 92.7439 237.443 112.999 190.53 153.487C143.617 193.976 120.147 242.856 120.147 300.128C120.147 357.401 143.617 406.303 190.53 446.792C237.443 487.28 294.081 507.513 360.442 507.513C426.802 507.513 483.465 487.28 530.378 446.792C556.215 424.471 574.95 399.603 586.557 372.208C596.001 349.866 600.736 325.854 600.736 300.128C600.736 280.401 597.961 261.661 592.387 243.911C591.75 241.911 591.088 239.912 590.401 237.935C588.314 232.091 585.921 226.358 583.248 220.734Z" fill="black" fill-opacity="0.0980392"/>
<path d="M781.009 395V249.545H882.429V278.097H816.165V307.926H877.244V336.548H816.165V366.449H882.429V395H781.009ZM944.29 396.562C936.241 396.562 928.925 394.479 922.344 390.312C915.762 386.146 910.507 379.896 906.577 371.562C902.647 363.229 900.682 352.884 900.682 340.526C900.682 327.694 902.718 317.135 906.79 308.849C910.862 300.563 916.188 294.432 922.77 290.455C929.399 286.477 936.525 284.489 944.148 284.489C949.877 284.489 954.777 285.483 958.849 287.472C962.921 289.413 966.283 291.922 968.935 295C971.586 298.078 973.598 301.274 974.972 304.588H975.682V249.545H1010.41V395H976.037V377.315H974.972C973.504 380.677 971.42 383.826 968.722 386.761C966.023 389.697 962.637 392.064 958.565 393.864C954.541 395.663 949.782 396.562 944.29 396.562ZM956.364 369.503C960.578 369.503 964.176 368.319 967.159 365.952C970.142 363.537 972.438 360.152 974.048 355.795C975.658 351.439 976.463 346.326 976.463 340.455C976.463 334.489 975.658 329.351 974.048 325.043C972.486 320.734 970.189 317.42 967.159 315.099C964.176 312.779 960.578 311.619 956.364 311.619C952.055 311.619 948.409 312.803 945.426 315.17C942.443 317.538 940.17 320.876 938.608 325.185C937.093 329.493 936.335 334.583 936.335 340.455C936.335 346.326 937.116 351.439 938.679 355.795C940.241 360.152 942.491 363.537 945.426 365.952C948.409 368.319 952.055 369.503 956.364 369.503ZM1102.76 347.912V285.909H1137.42V395H1104.32V374.688H1103.19C1100.77 381.364 1096.65 386.667 1090.83 390.597C1085.05 394.479 1078.07 396.42 1069.88 396.42C1062.44 396.42 1055.91 394.716 1050.27 391.307C1044.64 387.898 1040.26 383.139 1037.13 377.031C1034.01 370.876 1032.42 363.679 1032.38 355.44V285.909H1067.11V348.622C1067.15 354.541 1068.72 359.205 1071.79 362.614C1074.87 366.023 1079.06 367.727 1084.36 367.727C1087.82 367.727 1090.92 366.97 1093.67 365.455C1096.46 363.892 1098.66 361.643 1100.27 358.707C1101.93 355.724 1102.76 352.126 1102.76 347.912ZM1144.61 278.097V249.545H1267.55V278.097H1223.44V395H1188.79V278.097H1144.61ZM1273.39 395V285.909H1307.13V305.795H1308.26C1310.25 298.598 1313.5 293.248 1317.99 289.744C1322.49 286.193 1327.72 284.418 1333.69 284.418C1335.3 284.418 1336.96 284.536 1338.66 284.773C1340.37 284.962 1341.95 285.27 1343.42 285.696V315.881C1341.76 315.312 1339.58 314.863 1336.89 314.531C1334.23 314.2 1331.87 314.034 1329.78 314.034C1325.66 314.034 1321.95 314.957 1318.63 316.804C1315.37 318.603 1312.79 321.136 1310.89 324.403C1309.04 327.623 1308.12 331.411 1308.12 335.767V395H1273.39ZM1384.22 396.847C1377.26 396.847 1371.08 395.687 1365.69 393.366C1360.33 390.999 1356.1 387.448 1352.97 382.713C1349.89 377.931 1348.36 371.941 1348.36 364.744C1348.36 358.684 1349.42 353.57 1351.55 349.403C1353.68 345.237 1356.62 341.851 1360.36 339.247C1364.1 336.643 1368.41 334.678 1373.28 333.352C1378.16 331.979 1383.37 331.056 1388.91 330.582C1395.11 330.014 1400.11 329.422 1403.9 328.807C1407.68 328.144 1410.43 327.221 1412.13 326.037C1413.89 324.806 1414.76 323.078 1414.76 320.852V320.497C1414.76 316.851 1413.51 314.034 1411 312.045C1408.49 310.057 1405.1 309.062 1400.84 309.062C1396.25 309.062 1392.56 310.057 1389.76 312.045C1386.97 314.034 1385.19 316.78 1384.44 320.284L1352.4 319.148C1353.35 312.519 1355.79 306.6 1359.72 301.392C1363.7 296.136 1369.14 292.017 1376.05 289.034C1383.01 286.004 1391.37 284.489 1401.13 284.489C1408.09 284.489 1414.5 285.317 1420.37 286.974C1426.24 288.584 1431.36 290.952 1435.71 294.077C1440.07 297.154 1443.43 300.942 1445.8 305.44C1448.21 309.938 1449.42 315.076 1449.42 320.852V395H1416.75V379.801H1415.9C1413.96 383.494 1411.47 386.619 1408.44 389.176C1405.46 391.733 1401.93 393.651 1397.86 394.929C1393.83 396.207 1389.29 396.847 1384.22 396.847ZM1394.95 374.119C1398.69 374.119 1402.05 373.362 1405.03 371.847C1408.06 370.331 1410.48 368.248 1412.28 365.597C1414.08 362.898 1414.98 359.773 1414.98 356.222V345.852C1413.98 346.373 1412.77 346.847 1411.35 347.273C1409.98 347.699 1408.46 348.101 1406.81 348.48C1405.15 348.859 1403.45 349.19 1401.69 349.474C1399.94 349.759 1398.26 350.019 1396.65 350.256C1393.38 350.777 1390.59 351.581 1388.27 352.67C1386 353.759 1384.25 355.18 1383.01 356.932C1381.83 358.636 1381.24 360.672 1381.24 363.04C1381.24 366.638 1382.52 369.384 1385.07 371.278C1387.68 373.172 1390.97 374.119 1394.95 374.119ZM1521.58 397.06C1510.07 397.06 1500.2 394.692 1491.96 389.957C1483.77 385.223 1477.48 378.641 1473.07 370.213C1468.67 361.738 1466.47 351.937 1466.47 340.81C1466.47 329.635 1468.67 319.834 1473.07 311.406C1477.52 302.931 1483.84 296.326 1492.03 291.591C1500.27 286.856 1510.1 284.489 1521.51 284.489C1531.59 284.489 1540.38 286.312 1547.86 289.957C1555.39 293.603 1561.26 298.764 1565.47 305.44C1569.73 312.069 1571.98 319.858 1572.22 328.807H1539.76C1539.1 323.22 1537.21 318.84 1534.08 315.668C1531 312.495 1526.98 310.909 1522.01 310.909C1517.98 310.909 1514.45 312.045 1511.42 314.318C1508.39 316.544 1506.03 319.858 1504.32 324.261C1502.66 328.617 1501.84 334.015 1501.84 340.455C1501.84 346.894 1502.66 352.339 1504.32 356.79C1506.03 361.193 1508.39 364.531 1511.42 366.804C1514.45 369.029 1517.98 370.142 1522.01 370.142C1525.23 370.142 1528.07 369.455 1530.53 368.082C1533.04 366.709 1535.1 364.697 1536.71 362.045C1538.32 359.347 1539.34 356.08 1539.76 352.244H1572.22C1571.89 361.241 1569.64 369.1 1565.47 375.824C1561.35 382.547 1555.55 387.779 1548.07 391.52C1540.64 395.213 1531.81 397.06 1521.58 397.06ZM1621.31 366.378L1621.46 324.972H1626.29L1656.97 285.909H1696.31L1650.72 341.875H1641.56L1621.31 366.378ZM1589.99 395V249.545H1624.72V395H1589.99ZM1657.75 395L1629.2 349.688L1652.07 325.043L1697.88 395H1657.75ZM1755.25 397.06C1743.83 397.06 1733.99 394.811 1725.7 390.312C1717.46 385.767 1711.12 379.304 1706.67 370.923C1702.26 362.495 1700.06 352.481 1700.06 340.881C1700.06 329.612 1702.29 319.763 1706.74 311.335C1711.19 302.86 1717.46 296.278 1725.56 291.591C1733.65 286.856 1743.19 284.489 1754.18 284.489C1761.94 284.489 1769.05 285.696 1775.49 288.111C1781.93 290.526 1787.49 294.1 1792.18 298.835C1796.86 303.57 1800.51 309.418 1803.11 316.378C1805.72 323.291 1807.02 331.222 1807.02 340.17V348.835H1712.21V328.665H1774.71C1774.66 324.972 1773.78 321.681 1772.08 318.793C1770.37 315.904 1768.03 313.655 1765.05 312.045C1762.11 310.388 1758.73 309.56 1754.89 309.56C1751.01 309.56 1747.53 310.436 1744.45 312.188C1741.37 313.892 1738.93 316.236 1737.13 319.219C1735.33 322.154 1734.39 325.492 1734.29 329.233V349.759C1734.29 354.209 1735.17 358.116 1736.92 361.477C1738.67 364.792 1741.16 367.372 1744.38 369.219C1747.6 371.065 1751.43 371.989 1755.88 371.989C1758.96 371.989 1761.76 371.562 1764.26 370.71C1766.77 369.858 1768.93 368.603 1770.73 366.946C1772.53 365.289 1773.88 363.253 1774.78 360.838L1806.67 361.761C1805.34 368.911 1802.43 375.137 1797.93 380.44C1793.48 385.696 1787.63 389.792 1780.39 392.727C1773.14 395.616 1764.76 397.06 1755.25 397.06ZM1824.76 395V285.909H1858.49V305.795H1859.63C1861.62 298.598 1864.86 293.248 1869.36 289.744C1873.86 286.193 1879.09 284.418 1885.06 284.418C1886.67 284.418 1888.32 284.536 1890.03 284.773C1891.73 284.962 1893.32 285.27 1894.79 285.696V315.881C1893.13 315.312 1890.95 314.863 1888.25 314.531C1885.6 314.2 1883.23 314.034 1881.15 314.034C1877.03 314.034 1873.31 314.957 1870 316.804C1866.73 318.603 1864.15 321.136 1862.26 324.403C1860.41 327.623 1859.49 331.411 1859.49 335.767V395H1824.76Z" fill="#141212"/>
</svg>
