<svg width="682" height="600" viewBox="0 0 682 600" fill="none" xmlns="http://www.w3.org/2000/svg">
<path d="M669.032 214.758C668.309 212.601 667.587 210.411 666.756 208.095C665.6 204.826 664.3 201.431 662.927 198.036C658.267 186.454 652.704 175.157 646.202 163.988C643.457 159.292 640.459 154.5 637.316 149.772C622.65 127.878 604.227 107.125 582.156 87.7374C529.706 41.6634 468.622 13.708 398.905 3.9347C387.165 2.28466 375.208 1.14233 362.746 0.539436C355.738 0.19039 348.405 0 341 0C334.245 0 327.562 0.158657 320.843 0.475971C235.341 4.34721 161.686 33.4449 99.8798 87.7374C33.2933 146.229 0 216.831 0 299.545C0 382.269 33.3053 452.903 99.8798 511.384C140.843 547.335 186.972 572.245 237.941 585.984C264.492 593.124 291.981 597.312 320.843 598.645C320.952 598.645 321.024 598.645 321.132 598.645C327.273 598.931 333.125 599.089 338.833 599.089C339.7 599.089 340.35 599.089 341 599.089C348.441 599.089 355.81 598.899 362.746 598.582C364.552 598.486 366.178 598.391 367.767 598.296C382.361 597.376 396.593 595.726 410.175 593.409C415.919 592.426 421.59 591.315 427.081 590.141C485.455 577.258 537.003 551.048 582.156 511.384C617.268 480.541 643.132 446.334 659.712 408.701C673.042 378.461 680.411 345.999 681.783 311.285C681.928 307.446 682 303.511 682 299.545C682 299.132 682 298.688 682 298.275C682 298.053 682 297.863 682 297.641C681.856 271.843 678.424 247.188 671.669 223.389C670.874 220.629 669.971 217.678 669.032 214.758Z" fill="#FFEBD8"/>
<path d="M499.069 204.765L479.647 191.276L226.816 194.165L276.975 237.455L201.743 214.442L205.116 347.342L358.418 479.649C360.83 479.591 363.227 479.507 365.609 479.396C366.882 479.33 368.027 479.264 369.147 479.198C379.431 478.561 389.46 477.419 399.031 475.815C403.078 475.134 407.075 474.365 410.944 473.552C452.079 464.633 488.403 446.487 520.222 419.026C544.964 397.672 563.19 373.99 574.874 347.935C583.859 327.9 589.001 306.458 590.299 283.501L590.287 283.49L499.069 204.765Z" fill="black" fill-opacity="0.0980392"/>
<path d="M475.572 192.067C478.672 190.944 478.672 189.871 475.572 188.748L346.805 142.805C343.758 141.732 340.71 141.732 337.636 142.805L208.87 188.748C205.822 189.871 205.822 190.944 208.87 192.067L337.636 238.01C340.71 239.083 343.758 239.083 346.805 238.01L475.572 192.067ZM495.791 204.071C495.791 201.176 494.519 200.202 491.975 201.151L353.298 252.285C350.727 253.233 349.482 255.129 349.482 258.024V358.957L375.095 349.586H375.108C377.917 348.563 380.7 348.613 383.482 349.786C386.265 350.934 388.199 352.83 389.286 355.5C390.372 358.146 390.319 360.766 389.1 363.386C387.855 366.007 385.841 367.828 383.032 368.852H383.018L349.482 381.117V416.467C349.482 419.361 350.727 420.335 353.298 419.386L491.975 368.253C494.519 367.329 495.791 365.383 495.791 362.488V204.071ZM415.124 279.536V244.249L483.946 220.292V255.579L415.124 279.536ZM189.816 201.151C187.272 200.202 186 201.176 186 204.071V362.488C186 365.383 187.272 367.329 189.816 368.253L328.493 419.386C331.011 420.335 332.31 419.361 332.31 416.467V381.117L298.76 368.852C295.924 367.803 293.91 365.982 292.691 363.361C291.472 360.741 291.419 358.096 292.532 355.45C293.619 352.805 295.58 350.909 298.362 349.761C301.145 348.613 303.927 348.563 306.71 349.586L332.31 358.944V258.024C332.31 255.129 331.011 253.233 328.493 252.285L189.816 201.151Z" fill="#4673E6"/>
<path d="M583.248 201.734C580.329 195.626 577.037 189.643 573.372 183.785C571.31 180.468 569.121 177.173 566.804 173.943C556.852 160.015 544.71 146.856 530.378 134.487C483.465 93.999 426.802 73.7439 360.441 73.7439C294.081 73.7439 237.443 93.999 190.53 134.487C143.617 174.976 120.147 223.856 120.147 281.128C120.147 338.401 143.617 387.303 190.53 427.792C237.443 468.28 294.081 488.513 360.441 488.513C426.802 488.513 483.465 468.28 530.378 427.792C556.215 405.471 574.95 380.603 586.557 353.208C596.001 330.866 600.736 306.854 600.736 281.128C600.736 261.401 597.961 242.661 592.387 224.911C591.75 222.911 591.088 220.912 590.401 218.935C588.314 213.091 585.921 207.358 583.248 201.734Z" fill="black" fill-opacity="0.0980392"/>
</svg>
